<svg viewBox="0 0 20 20" class="Icon Icon--message" width="20" height="20" aria-hidden="true" style="height: 20px; width: 20px;"><title></title><g><path d="M9 0C3.394 0 0 4.13 0 8c0 1.654.522 3.763 2.014 5.566.314.292.518.82.454 1.17-.165 1.488-.842 1.905-.842 1.905-.328.332.105.67.588.582 1.112-.2 2.07-.58 3.526-1.122.4-.202.464-.147.78-.078C11.524 17.764 18 14 18 8c0-3.665-3.43-8-9-8z" fill="#8590a6"></path><path d="M19.14 9.628c.758.988.86 2.01.86 3.15 0 1.195-.62 3.11-1.368 3.938-.21.23-.354.467-.308.722.12 1.073.614 1.5.614 1.5.237.24-.188.563-.537.5-.802-.145-1.494-.42-2.545-.81-.29-.146-.336-.106-.563-.057-2.043.712-4.398.476-6.083-.926 5.964-.524 8.726-3.03 9.93-8.016z" fill="#8590a6"></path></g></svg>