<svg viewBox="0 0 20 20" class="Icon Button-icon Icon--setting" width="14" height="16" aria-hidden="true" style="height: 16px; width: 14px;"><title></title><g><path d="M18.868 15.185c-.164.096-.315.137-.452.137-.123 0-1.397-.26-1.617-.233-1.355.013-1.782 1.275-1.836 1.74-.055.454 0 .893.19 1.304.138.29.125.577-.067.85-.863.893-2.165 1.016-2.357 1.016-.123 0-.247-.055-.356-.15-.11-.097-.685-1.14-1.07-1.47-1.303-.954-2.246-.328-2.63 0-.397.33-.67.7-.835 1.126-.07.18-.18.302-.33.37-1.354.426-2.918-.92-3.014-1.056-.082-.11-.123-.22-.123-.356-.014-.138.383-1.276.342-1.688-.342-1.9-1.836-1.687-2.096-1.673-.303.014-.604.068-.92.178-.205.056-.396.03-.588-.054-.888-.462-1.137-2.332-1.11-2.51.055-.315.192-.52.438-.604.425-.164.81-.452 1.15-.85.932-1.262.344-2.25 0-2.634-.34-.356-.725-.645-1.15-.81-.137-.04-.233-.15-.328-.315C-.27 6.07.724 4.95.978 4.733c.255-.22.6-.055.723 0 .426.164.878.22 1.344.15C4.7 4.636 4.784 3.14 4.81 2.908c.015-.247-.11-1.29-.136-1.4-.027-.123-.014-.22.027-.315C5.318.178 7.073 0 7.223 0c.178 0 .33.055.44.178.108.124.63 1.11 1 1.4.398.338 1.582.83 2.588.013.398-.273.96-1.288 1.083-1.412.123-.123.26-.178.384-.178 1.56 0 2.33 1.03 2.438 1.22.083.124.096.248.07.37-.03.152-.33 1.153-.262 1.606.366 1.537 1.384 1.742 1.89 1.783.494.027 1.645-.357 1.81-.344.164.014.315.083.424.206.535.31.85 1.715.905 2.14.027.233-.014.44-.11.562-.11.138-1.165.714-1.48 1.112-.855.982-.342 2.25-.068 2.606.26.37 1.22.905 1.288.96.15.137.26.302.315.494.146 1.413-.89 2.387-1.07 2.47zm-8.905-.535c.644 0 1.246-.123 1.822-.356.575-.248 1.082-.59 1.493-1.016.425-.425.754-.92 1-1.495.247-.562.357-1.18.357-1.81 0-.66-.11-1.262-.356-1.825-.248-.562-.577-1.056-1.002-1.48-.41-.427-.918-.756-1.493-1.003-.576-.233-1.178-.357-1.822-.357-.644 0-1.247.124-1.81.357-.56.247-1.067.576-1.478 1.002-.425.425-.768.92-1 1.48-.247.564-.37 1.167-.37 1.826 0 .644.123 1.248.37 1.81.232.563.575 1.07 1 1.495.424.426.917.768 1.48 1.016.56.233 1.164.356 1.808.356z"></path></g></svg>